<?xml version="1.0" encoding="UTF-8" standalone="no"?>
<svg
   viewBox="0 0 24 24"
   version="1.1"
   id="svg1"
   sodipodi:docname="off-stage.svg"
   inkscape:version="1.4.4 (dcaf3e7, 2026-05-05)"
   xmlns:inkscape="http://www.inkscape.org/namespaces/inkscape"
   xmlns:sodipodi="http://sodipodi.sourceforge.net/DTD/sodipodi-0.dtd"
   xmlns="http://www.w3.org/2000/svg"
   xmlns:svg="http://www.w3.org/2000/svg">
  <defs
     id="defs1" />
  <sodipodi:namedview
     id="namedview1"
     pagecolor="#ffffff"
     bordercolor="#000000"
     borderopacity="0.25"
     inkscape:showpageshadow="2"
     inkscape:pageopacity="0.0"
     inkscape:pagecheckerboard="0"
     inkscape:deskcolor="#d1d1d1"
     inkscape:zoom="32"
     inkscape:cx="11.34375"
     inkscape:cy="11.359375"
     inkscape:window-width="1920"
     inkscape:window-height="1009"
     inkscape:window-x="-8"
     inkscape:window-y="-8"
     inkscape:window-maximized="1"
     inkscape:current-layer="svg1" />
  <path
     style="baseline-shift:baseline;display:inline;overflow:visible;opacity:1;stroke-width:0.25;stroke-linecap:round;stroke-dasharray:none;enable-background:accumulate;stop-color:#000000;stop-opacity:1"
     d="M 21.735233,6.8443737 4.0431012,6.9214522 4.0274694,6.9213647 C 2.644084,7.0088658 1.8793219,7.5131266 1.5384253,8.0790973 c -0.3408965,0.56597 -0.2330932,1.147129 -0.2330922,1.14713 l -1.52e-5,0.002 c 0.4948223,2.4970597 3.1825869,2.9322167 3.1825869,2.9322167 l 0.031227,0.0041 0.033188,0.0021 c 2.0642718,0.05762 3.2355439,-1.289991 3.4384736,-1.533201 0.7727636,-0.343872 1.5877731,0.368415 1.5877731,0.368415 0.2021865,0.188515 0.5189775,0.17719 0.7071875,-0.02528 0.188012,-0.202716 0.175813,-0.519539 -0.02723,-0.707198 0,0 -1.2795143,-1.2182537 -2.715729,-0.538897 l -0.107709,0.05017 -0.072804,0.09334 c 0,0 -1.0513869,1.315892 -2.7573567,1.285115 -0.068668,-0.01087 -1.9591157,-0.318225 -2.3180376,-2.1225957 l 8.7e-6,-0.0019 c -3.504e-4,-0.0016 -0.041284,-0.191045 0.1079674,-0.438846 0.1494058,-0.24805 0.51555,-0.597799 1.6874558,-0.674004 l 18.8601144,-0.07735 c 0.276153,-5.776e-4 0.499547,-0.2249207 0.498953,-0.5010737 -5.68e-4,-0.276924 -0.226101,-0.4989661 -0.503026,-0.4989659 z"
     id="path3"
     sodipodi:nodetypes="cccscccccccccccccccccccsc" />
  <circle
     style="fill:none;fill-opacity:1;stroke:#000000;stroke-width:1;stroke-dasharray:none;stroke-dashoffset:0;stroke-opacity:1"
     id="path1"
     cx="12.05277"
     cy="3.9999352"
     r="3.0631971" />
  <path
     id="rect1"
     style="fill:none;fill-opacity:1;stroke:#000000;stroke-width:1;stroke-dasharray:none;stroke-dashoffset:0;stroke-opacity:1"
     d="M 12.052734 8.4746094 C 10.572713 8.4746094 9.3438342 9.5279418 9.0488281 10.9375 L 6.03125 16.423828 C 5.8483446 16.756337 5.968272 17.17061 6.3007812 17.353516 C 6.6332905 17.536421 7.0475634 17.416494 7.2304688 17.083984 L 8.9804688 13.904297 L 8.9804688 20.076172 C 8.9804687 21.802264 10.351126 23.191406 12.052734 23.191406 C 13.754343 23.191406 15.125 21.802264 15.125 20.076172 L 15.125 13.927734 L 16.861328 17.083984 C 17.044233 17.416494 17.458506 17.536421 17.791016 17.353516 C 18.123525 17.17061 18.243452 16.756337 18.060547 16.423828 L 15.0625 10.972656 C 14.78085 9.5452877 13.545152 8.4746094 12.052734 8.4746094 z " />
</svg>
